<svg width="334" height="52" viewBox="0 0 334 52" fill="none" xmlns="http://www.w3.org/2000/svg">
<path d="M64.0954 15.3876L52.8816 39.3357L41.6044 15.3876H34.4452L23.1682 39.3357L11.8909 15.3876L0.867188 15.3242L17.5929 49.9159H28.8068L38.0566 30.8461L47.243 49.9159H58.4568L75.1192 15.3876H64.0954Z" fill="black"/>
<path d="M97.1884 50.8666C110.493 50.8666 119.553 43.7708 119.553 32.6204C119.553 21.7868 110.556 14.4375 97.1884 14.4375C83.8206 14.4375 74.8242 21.7868 74.8242 32.6204C74.8242 43.7708 83.8838 50.8666 97.1884 50.8666ZM97.1884 42.6304C89.7126 42.6304 84.961 39.336 84.961 32.6204C84.961 26.2216 89.7126 22.6736 97.125 22.6736C104.538 22.6736 109.416 26.2216 109.416 32.6204C109.416 39.336 104.664 42.6304 97.1884 42.6304Z" fill="black"/>
<path d="M146.708 14.4375C140.056 14.4375 136.635 17.8587 134.418 21.66L131.503 15.3878H124.598V49.9162H134.734V27.4886C136.762 24.2576 139.803 22.4836 144.554 22.357C147.089 22.2936 150.826 23.1806 152.917 24.701L155.831 17.2885C153.107 15.1344 149.179 14.4375 146.708 14.4375ZM133.087 30.8464C133.214 30.4664 133.404 30.0228 133.594 29.6428L133.087 30.8464Z" fill="black"/>
<path d="M201.478 49.9162L184.372 29.326L199.64 15.4512H185.892L170.434 29.516V4.30078H160.297V49.9162H170.434V35.9148H177.466L189.123 49.9162H201.478Z" fill="black"/>
<path d="M205.894 49.9162H216.032V4.30078H205.894V49.9162Z" fill="black"/>
<path d="M228.308 13.4869C231.602 13.4869 234.262 10.826 234.262 7.53153C234.262 4.23707 231.602 1.57617 228.308 1.57617C225.012 1.57617 222.352 4.23707 222.352 7.53153C222.352 10.826 225.012 13.4869 228.308 13.4869ZM223.302 49.9159H233.44V15.3875C230.462 17.0348 226.28 17.0348 223.302 15.3875V49.9159Z" fill="black"/>
<path d="M247.89 49.916H258.026V22.9902H267.53V15.3877H258.026C258.026 11.2696 260.75 9.68572 263.982 9.68572C266.642 9.68572 269.746 10.7628 271.964 12.5367L274.942 4.8074C271.268 2.2732 266.452 1.13281 262.462 1.13281C254.478 1.13281 247.952 5.88442 247.952 15.3877H239.716L239.654 22.9902H247.89V49.916Z" fill="black"/>
<path d="M294.874 14.4375C278.084 14.4375 272.002 22.9904 272.066 32.9372C272.13 44.0242 280.872 50.8666 294.81 50.8666C303.174 50.8666 309.952 49.346 315.084 45.5448L311.282 38.9558C307.482 41.49 302.412 42.6304 294.874 42.6304C288.538 42.6304 283.342 40.6032 282.14 36.1682H317.238C317.302 21.5966 309.762 14.4375 294.874 14.4375ZM294.874 22.6736C302.286 22.6736 306.024 24.6376 306.974 28.5656H282.266C283.152 24.6376 287.398 22.6736 294.874 22.6736Z" fill="black"/>
<path d="M327.292 49.916C330.332 49.916 332.868 47.4452 332.868 44.2776C332.868 41.2364 330.332 38.7656 327.292 38.7656C324.188 38.7656 321.654 41.2364 321.654 44.2776C321.654 47.4452 324.188 49.916 327.292 49.916Z" fill="black"/>
</svg>
